<svg xmlns="http://www.w3.org/2000/svg" width="256" height="256"><path fill="#1976D2" fill-opacity=".192" fill-rule="evenodd" d="M0 128.004v128.004l128.25-.254 128.25-.254.254-127.75L257.008 0H0zm.485.496c0 70.4.119 99.053.265 63.672s.146-92.98 0-128S.485 58.1.485 128.5"/><path fill="#1976D2" fill-opacity=".107" fill-rule="evenodd" d="M47.5 1c-.34.55-1.871 1-3.402 1-6.044 0-17.763 5.225-25.296 11.279C11.247 19.351 2 36.234 2 43.957c0 1.453-.455 3.098-1.012 3.655-1.545 1.545-.762 161.362.823 167.888 4.3 17.709 16.478 31.426 33.831 38.109 4.585 1.766 9.595 1.888 89.206 2.164 55.514.192 86.28-.064 90-.751 14.813-2.733 29.28-13.758 35.634-27.157 1.921-4.051 4.037-9.615 4.701-12.365 1.532-6.337 2.421-164.121.956-169.5-4.805-17.639-6.784-21.499-15.53-30.296q-9.82-9.876-22.109-12.765c-2.75-.646-5.781-1.572-6.736-2.057C209.272-.384 48.284-.268 47.5 1m106 15c-.34.55-.141 1 .441 1S155 16.55 155 16s-.198-1-.441-1-.719.45-1.059 1m-39.297 3.57c-1.288.903-3.101 1.243-4.608.864-2.137-.536-19.179 2.56-23.595 4.287-.825.322-2.29.488-3.256.369-.966-.12-2.991.627-4.5 1.66S73.475 29.222 71 29.949c-8.566 2.515-11 3.456-11 4.252 0 .439.016 1.04.036 1.335s-.615 1.186-1.411 1.982c-.796.795-1.633 2.007-1.862 2.693-.309.927-1.102.797-3.089-.505-1.471-.964-2.674-1.292-2.674-.729S51.45 40 52 40s1 .691 1 1.535c0 1.225-.404 1.319-2 .465-1.611-.862-2-.76-2 .524 0 .877-.43 1.328-.956 1.003s-1.703.549-2.615 1.941C44.517 46.861 42.93 48 41.904 48c-1.141 0-2.102.942-2.475 2.426-.335 1.335-1.468 3.205-2.519 4.155-1.05.951-1.91 2.326-1.91 3.055s-1.062 1.592-2.359 1.918C30.493 60.093 26 66.962 26 69.706c0 1.378-2.947 7.143-3.977 7.78-.467.289-1.821 2.66-3.008 5.27s-2.628 5.609-3.202 6.665-1.02 3.645-.991 5.75S14.505 99 14.054 99c-1.159 0-1.927 4.727-.93 5.724.765.765.35 2.991-2.293 12.296-.549 1.935-.849 9.427-.665 16.648.291 11.427.593 13.42 2.334 15.376 1.222 1.374 1.571 2.399.895 2.637-1.312.462-.588 5.319.793 5.319.525 0 .854 1.012.729 2.25-.321 3.207.967 7.625 3.574 12.25 1.239 2.2 2.581 5.059 2.981 6.353.745 2.407 4.364 8.433 6.716 11.18C31.001 192.32 35 197.9 35 198.539c0 1.303 5.325 6.98 8.17 8.711 1.584.963 3.304 2.867 3.823 4.231.548 1.443 1.496 2.268 2.265 1.973.727-.279 2.875.879 4.773 2.573 2.029 1.812 4.174 2.891 5.208 2.621 2.035-.532 3.318.89 1.704 1.887-1.422.879 1.009 2.552 8.057 5.545 3.025 1.284 7.061 3.244 8.968 4.355s4.497 1.885 5.754 1.72c1.367-.179 2.528.333 2.889 1.273.35.913 1.78 1.572 3.413 1.572 1.545 0 3.013.562 3.262 1.25.362.999.881.997 2.583-.008 1.789-1.057 2.131-1.017 2.131.25 0 1.815 1.164 1.944 2.8.308.921-.921 1.2-.923 1.2-.011 0 .654 1.013 1.228 2.25 1.276s4.725.179 7.75.289c3.025.111 6.289.575 7.252 1.032.964.456 6.881.667 13.15.468 9.525-.302 11.746-.678 13.526-2.289l2.129-1.926-3.279-2.027c-1.803-1.115-5.682-3.958-8.62-6.319S130.347 223 129.773 223s-2.04 1.075-3.259 2.39c-4.79 5.169-10.869-.148-6.97-6.097l1.764-2.692-4.404-3.798c-5.033-4.34-5.12-4.363-8.438-2.189-1.86 1.219-2.348 2.25-1.993 4.209.261 1.442-.072 2.939-.751 3.37-.708.45.33.783 2.469.792 2.03.008 3.969-.435 4.309-.985 1.04-1.683 2.5-1.114 2.5.974 0 2.65-5.155 5.276-8.641 4.401-1.976-.496-2.461-.349-1.89.575 1.136 1.838-1.374 5.809-4.106 6.495-3.519.883-8.135-1.828-7.919-4.651.192-2.503-2.049-5.794-3.944-5.794-1.447 0-5.034-3.799-4.29-4.544.292-.292 1.682-.007 3.087.633 1.406.641 3.601.902 4.879.581 3.406-.855 3.285-7.058-.188-9.684-2.22-1.678-2.726-1.725-4.703-.433-1.218.796-3.58 1.447-5.25 1.447-2.272 0-3.035.459-3.035 1.826 0 1.004-1.102 2.861-2.449 4.127-3.203 3.008-8.59 3.095-14.932.24-4.873-2.193-4.881-2.204-4.335-6.273.301-2.241 1.199-4.828 1.996-5.748 1.812-2.091 3.008-9.172 1.549-9.172-.575 0-3.472-2.465-6.437-5.479-4.465-4.536-5.392-6.084-5.392-9 0-2.724-.407-3.521-1.8-3.521-.99 0-2.292-.492-2.893-1.093-.79-.79-1.657-.79-3.134 0-3.527 1.888-4.421 1.347-3.983-2.407.316-2.711.048-3.5-1.191-3.5-2.899 0-3.947-2.101-3.322-6.659l.595-4.341h-4.571c-8.153 0-12.055-2.859-9.495-6.958.915-1.466.88-2.233-.159-3.485-.732-.883-1.155-1.731-.94-1.884 2.129-1.51 5.964-3.673 6.513-3.673.379 0-.167.966-1.215 2.146-1.397 1.574-1.505 2.017-.405 1.662.825-.266 2.048.231 2.718 1.104 1.061 1.383 1.243 1.266 1.408-.912.104-1.375.131-3.175.06-4-.257-2.992 2.04-7 4.011-7C33.268 134 45 125.5 45 124.001c0-1.668-1.854-2.025-4.425-.853-3.851 1.754-7.575-.213-7.575-4.002 0-2.445.401-2.896 2.575-2.896 3.689 0 5.427-2.014 3.175-3.678-.962-.711-1.75-1.743-1.75-2.294s-1.173-.776-2.606-.502c-3.52.672-4.865-1.612-2.51-4.261.986-1.108 2.383-3.51 3.105-5.336 1.226-3.102 1.584-3.3 5.412-3 4.011.314 4.093.256 3.819-2.679-.217-2.315.24-3.228 2-4 1.859-.816 2.224-1.655 1.975-4.55-.3-3.478-.229-3.553 3.465-3.657 2.609-.074 4.329-.796 5.581-2.342 2.155-2.662 2.857-2.211 2.974 1.912.048 1.687.464 2.835.925 2.551 1.217-.752-.294 2.946-1.567 3.836-1.969 1.376 1.763 2.71 5.927 2.118l4-.568-3.5 3.359c-4.668 4.48-12.682 10.933-17 13.688-2.338 1.493-2.836 2.138-1.5 1.943 1.812-.263 1.969.19 1.668 4.822-.252 3.884.036 5.252 1.199 5.699 1.051.403 1.357.132.975-.862-.353-.919.073-1.449 1.162-1.449 1.431 0 1.606-.601 1.044-3.598-.458-2.438-.332-3.387.388-2.941.585.361 1.064.008 1.064-.785 0-.794.788-1.721 1.75-2.06.962-.34 2.313-.879 3-1.2.688-.32 1.25-.1 1.25.489 0 1.626-3.265 5.095-4.796 5.095-1.653 0-1.192 3.172.546 3.75.688.229 1.25-.101 1.25-.733 0-.633 1.206-2.731 2.68-4.664 2.177-2.854 2.417-3.675 1.279-4.379-.771-.476-1.072-1.194-.67-1.597.809-.809 3.629 2.461 3.679 4.266.018.629.707 1.402 1.532 1.719 1.328.509 1.333.174.041-2.918-1.746-4.179-1.103-6.452 1.816-6.422 2.072.022 2.06.087-.357 1.978-1.375 1.076-1.919 1.966-1.208 1.978s1.836-.428 2.5-.978c2.496-2.066 16.85-12 17.34-12 .958 0 3.274-2.76 2.754-3.281-.286-.285.298-.452 1.297-.369 1.397.115 1.754-.464 1.545-2.502-.23-2.237.47-3.067 4.473-5.304 4.04-2.258 4.904-2.437 5.806-1.203.887 1.213 1.949.814 6.514-2.446 2.999-2.142 6.021-3.895 6.716-3.895 1.16 0 1.701-1.307 1.366-3.297-.074-.439.613-.664 1.527-.5.915.163 1.859-.265 2.1-.953.24-.687-.051-1.25-.647-1.25S119 66.546 119 65.992c0-.655.613-.677 1.75-.061.963.522 2.987 1.209 4.5 1.528 3.59.756 3.55 2.541-.058 2.541-3.165 0-22.482 12.806-24.223 16.057C100.384 87.15 98.883 88 97.536 88c-1.316 0-2.994.563-3.728 1.25s-6.054 4.4-11.822 8.25c-9.671 6.456-10.253 7.022-7.486 7.282 8.508.799 13.13 2.436 17.662 6.257C96.829 114.975 99 115.915 99 114c0-.55.705-1 1.567-1 1.086 0 1.382-.585.964-1.901-.514-1.622-.121-1.88 2.675-1.75 2.527.116 3.508-.368 4.279-2.113.551-1.245 1.567-2.046 2.258-1.781 1.88.721 4.257-.47 4.257-2.133 0-2.492 2.847-4.694 4.401-3.404 2.195 1.822 4.679.249 3.983-2.522-.605-2.413.902-3.36 2.146-1.347.449.726 1.033.729 1.901.008.689-.572 1.519-.774 1.843-.449.325.324.343-.355.042-1.509-.564-2.157 1.056-2.925 2.214-1.05 1.039 1.681 3.683-1.128 3.112-3.308-.352-1.347-.081-1.74.931-1.351 1.993.765 4.427-.333 4.427-1.997 0-1.606 1.592-1.863 2.494-.402.35.566 1.732-.047 3.222-1.428 2.513-2.331 2.548-2.512.946-4.956-.914-1.395-1.662-2.729-1.662-2.963 0-.235 1.8-1.147 4-2.027 4.5-1.801 5.427-4.617 1.519-4.617-1.812 0-2.65.674-3.108 2.5-.724 2.882-1.639 3.135-3.449.954-.705-.85-1.851-1.327-2.547-1.06-.695.267-2.013-.658-2.928-2.055-1.304-1.989-2.296-2.447-4.576-2.113-1.601.235-2.911.29-2.911.121s1.912-1.304 4.25-2.523c3.121-1.628 3.773-2.319 2.452-2.603-.989-.212-2.432.14-3.206.783-1.564 1.297-3.874.416-2.926-1.117.331-.536.018-1.679-.696-2.539-1.087-1.31-.988-1.792.61-2.96 1.481-1.083 1.641-1.663.712-2.592-1.897-1.897-1.396-3.067 1.107-2.589 1.267.242 2.845-.14 3.507-.849 1.222-1.307 2.682-1.108 7.19.983 3.917 1.816 5.043 3.759 3.476 5.997-.729 1.041-1.094 2.495-.81 3.233.402 1.047-.142 1.153-2.484.481-2.599-.745-3.076-.572-3.577 1.294-.318 1.185-.584 2.728-.591 3.429-.018 1.674 4.209 3.241 6.869 2.545 1.635-.427 1.966-1.075 1.498-2.937-.516-2.059-.169-2.475 2.51-3.011 1.71-.342 3.109-1.016 3.109-1.497s.711-.875 1.579-.875c1.235 0 1.436.655.921 3-.586 2.666-.399 3 1.68 3 1.286 0 2.901-.9 3.588-2 .74-1.186.838-2 .24-2-2.099 0-2.555-.185-4.258-1.726-.963-.871-1.75-2.68-1.75-4.019 0-3.434-3.762-6.301-7.5-5.715-2.574.404-3.313-.027-5.204-3.035-2.35-3.738-1.996-4.349 1.145-1.973 2.26 1.709 6.152 1.936 7.093.414.43-.697 1.494-.502 3.139.576 1.369.896 3.104 1.394 3.857 1.105.888-.341 1.173-.016.812.924-.717 1.869.581 1.833 4.504-.124s3.961-2.958.192-4.907c-3.634-1.88-5.771-7.821-4.348-12.089 1.426-4.278 2.916-3.983 2.489.492-.342 3.589-.188 3.892 1.722 3.393 1.195-.313 2.099-1.361 2.099-2.433 0-2.312 1.328-2.412 3.479-.261 1.157 1.157 1.549 3.092 1.368 6.75-.147 2.961.33 6.184 1.128 7.628l1.382 2.5.85-3.25c1.727-6.604 7.144-2.155 7.395 6.074.15 4.916 1.877 10.134 4.593 13.878 2.253 3.107-.006 3.044-3.929-.108-3.837-3.084-3.91-3.099-9.747-1.926l-5.88 1.181 3.68 3.181c2.025 1.75 3.681 3.697 3.681 4.326S174.927 75 176.059 75s1.784.445 1.448.989c-.341.552.03.742.843.43.799-.306 1.69-1.465 1.981-2.575.671-2.567 4.165-2.078 4.167.583.001 1.046.502 2.069 1.113 2.274 1.38.463 4.689-4.406 3.882-5.712-.819-1.326.53-7.989 1.618-7.989.489 0 .889 1.28.889 2.845 0 1.575.893 3.653 2 4.655 1.999 1.809 2.821 7.5 1.083 7.5-.504 0-1.066-.437-1.25-.971-.691-2.014-5.333 1.468-5.333 4.001 0 2.031.437 2.421 2.456 2.195 1.351-.151 2.797-.826 3.214-1.5s1.223-1.281 1.794-1.35l2.061-.25c.563-.069 1.495-1.362 2.07-2.875.959-2.523 1.131-2.597 2.08-.901.57 1.017.788 3.088.485 4.601-.497 2.486-.313 2.706 1.901 2.283 1.348-.258 3.117.085 3.932.761s2.182.961 3.037.633c2.21-.848.455-3.821-6.188-10.486-2.938-2.947-5.342-5.734-5.342-6.193 0-2.012 4.336-7.92 6.261-8.531 2.888-.916 6.052 2.995 5.495 6.793-.375 2.555-.27 2.66 1.273 1.264 2.207-1.997 5.235-.881 4.436 1.635-.748 2.359.299 4.158 1.854 3.185.65-.406 1.811-.833 2.581-.949.77-.117 1.67-.612 2-1.101.33-.49 1.5-1.274 2.6-1.743 1.929-.823 1.921-.867-.25-1.246-2.013-.353-2.409-.866-2.184-2.831.036-.316-.864-1.382-2-2.367S220 59.756 220 59.133 219.55 58 219 58s-1-.675-1-1.5-.623-1.5-1.385-1.5-2.1-1.091-2.973-2.424c-.874-1.333-2.613-2.748-3.865-3.144s-2.865-1.554-3.584-2.575S203.787 45 202.443 45c-2.584 0-3.298-1.441-1.193-2.407.688-.316.238-.323-1-.016-1.614.4-2.25.115-2.25-1.01 0-.862-.69-1.567-1.532-1.567s-1.939-1.013-2.437-2.25-.933-1.736-.968-1.107-.682 1.381-1.439 1.671c-.828.318-1.325-.094-1.25-1.035.069-.86-.508-1.786-1.283-2.058-.974-.341-1.216.012-.782 1.143.346.9.192 1.636-.34 1.636-.533 0-.969-.612-.969-1.361 0-1.173-1.991-2.377-11.135-6.733-.899-.429-2.586-.53-3.75-.226-1.689.442-2.115.102-2.115-1.688 0-1.957-.381-2.166-2.994-1.643-2.45.49-3.291.146-4.627-1.893-1.248-1.905-1.944-2.232-2.957-1.391-.73.605-2.234.812-3.344.46-2.378-.755-7.146 2.34-27.515 17.857C120.146 47.794 113.709 52 112.313 52c-1.347 0-2.313.602-2.313 1.441 0 2.347-1.989 2.879-3.991 1.067-1.123-1.016-2.643-1.441-3.819-1.068-1.246.395-2.159.084-2.521-.859-.39-1.018-.097-1.299.941-.9 1.21.464 1.448-.168 1.199-3.196-.198-2.422.155-3.937.985-4.228.93-.326 1.118.246.669 2.036-.744 2.963.803 4.297 2.546 2.196 1.569-1.89 2.991-1.913 2.991-.048 0 2.017 1.733 2.867 3.237 1.587 1.484-1.262 10.789-8.522 19.699-15.368 3.464-2.662 6.523-5.699 6.798-6.75.274-1.05 1.165-1.91 1.978-1.91 1.866 0 7.288-3.807 7.288-5.118 0-.629-.609-.641-1.697-.031-1.051.587-2.624.597-4.127.026-1.336-.508-5.86-1.154-10.053-1.434-4.193-.281-9.462-.702-11.71-.935-2.61-.272-4.854.112-6.21 1.062M156.5 22c-.34.55-.168 1 .382 1s1.278-.45 1.618-1 .168-1-.382-1-1.278.45-1.618 1M54.667 31.667c-.956.955-.822 2.333.226 2.333.491 0 1.152-.675 1.469-1.5.585-1.524-.481-2.048-1.695-.833M189 41c0 .55.675 1 1.5 1s1.5.499 1.5 1.108c0 .692-.968.866-2.574.463-2.257-.567-2.535-.364-2.25 1.641.276 1.949.918 2.288 4.324 2.288 3.415 0 4.048-.337 4.327-2.305.179-1.268-.213-2.955-.873-3.75C193.599 39.812 189 39.468 189 41M.477 129c0 44.825.123 63.163.273 40.75s.15-59.087 0-81.5S.477 84.175.477 129M168 50.941c0 2.393 1.81 3.649 3.223 2.236.731-.731.575-1.522-.516-2.613-2.063-2.063-2.707-1.973-2.707.377m-91.75 1.733c-2.305 1.608-3.049 5.714-1.239 6.833.639.395.456 1.416-.5 2.781-1.828 2.61-1.999 7.696-.261 7.753.688.023-.667 1.775-3.009 3.894-2.874 2.6-4.059 4.375-3.643 5.459.339.883.841 1.606 1.115 1.606.978 0 8.833-6.459 11.496-9.454 1.491-1.675 2.728-2.517 2.75-1.871.023.646-3.784 4.656-8.459 8.912C67.18 85.25 64.338 89 66.608 89c.335 0 3.372-2.185 6.75-4.855s6.728-4.65 7.443-4.4c1.17.41 9.199-4.365 9.199-5.471 0-.249-.976-1.244-2.168-2.209l-2.169-1.756 3.169-2.343C90.574 66.678 92 65.034 92 64.312s.563-1.369 1.25-1.44c4.63-.472 5.6-.661 6.614-1.288.625-.386 1.136-.225 1.136.357 0 1.743 2.886 1.204 6.04-1.129 3.761-2.78 3.783-4.152.055-3.333-1.666.366-3.184.187-3.559-.42-.36-.583-1.701-1.059-2.98-1.059-1.378 0-2.994-1.019-3.964-2.5-1.948-2.973-6.02-3.328-8.845-.771-1.811 1.639-1.961 1.639-2.879 0-1.201-2.146-5.58-2.174-8.618-.055m87.24-.658c-.346.559-1.047.758-1.559.441-1.442-.891-1.098.518.521 2.138 1.27 1.27 1.584 1.206 2.5-.506.576-1.076 1.048-2.212 1.048-2.523 0-.957-1.845-.626-2.51.45M138 55.024c0 1.04 1.952 2.333 4.01 2.654 1.924.301 4.653-1.348 3.741-2.261-1.04-1.039-7.751-1.38-7.751-.393m-12.926 1.838c-.778 1.454-.497 2.331 1.279 4C128.76 63.123 131 63.671 131 62c0-.55-.723-1-1.607-1-1.032 0-1.39-.537-1-1.5l1.214-3c.913-2.256-3.313-1.918-4.533.362M142 56c0 .55.45 1 1 1s1-.45 1-1-.45-1-1-1-1 .45-1 1m35-.059c0 .518.445 1.216.989 1.552.566.35.734-.051.393-.941-.665-1.732-1.382-2.049-1.382-.611m-82 1.09c0 .533-.506.857-1.125.719s-1.331.313-1.583 1c-.605 1.65 1.851 1.597 4.157-.089 1.655-1.21 1.673-1.4.191-1.969-.902-.346-1.64-.193-1.64.339m73-.104c0 2.418 9.143 7.263 10.724 5.683 1.294-1.294-5.068-6.61-7.911-6.61-1.547 0-2.813.417-2.813.927M58 58.063c0 .584-.788.983-1.75.885-3.209-.327-4.25.04-4.25 1.495C52 62.222 55.807 65 58.244 65c2.54 0 4.454-4.454 2.781-6.47C59.556 56.76 58 56.52 58 58.063m58.02.461c.696.838 1.471 1.318 1.723 1.067.693-.694-.716-2.591-1.924-2.591-.664 0-.588.574.201 1.524m16.98.945c0 .894.586 1.243 1.5.893.825-.317 1.5-.978 1.5-1.469s-.675-.893-1.5-.893-1.5.661-1.5 1.469M111 61.5c0 .825.45 1.5 1 1.5s1-.675 1-1.5-.45-1.5-1-1.5-1 .675-1 1.5m9.008-.505c-.927.573-.107 1.424 2.801 2.908C127.346 66.217 129 66.51 129 65c0-.55-1.125-1-2.5-1-1.47 0-2.5-.574-2.5-1.393 0-1.759-2.27-2.676-3.992-1.612m-10.258 8.667c.688.278 1.813.278 2.5 0 .688-.277.125-.504-1.25-.504s-1.937.227-1.25.504m46.917.005c-1.36 1.359-.605 3.333 1.274 3.333 2.496 0 3.725-1.964 1.937-3.096-1.673-1.06-2.34-1.109-3.211-.237m-60.963 2.929c-2.909 1.577-4.727 4.97-4.672 8.719.031 2.136.064 2.142 1.5.244.807-1.068 1.468-2.755 1.468-3.75S94.381 76 94.847 76c1.036 0 5.153-3.489 5.153-4.367 0-.973-1.236-.696-4.296.963M178 72c0 .55.45 1 1 1s1-.45 1-1-.45-1-1-1-1 .45-1 1m-75.44 3.279c1.067 1.462 2.278 2.672 2.69 2.69 1.528.064.609-1.526-1.971-3.409l-2.659-1.94zm121.558-.096c-1.272 2.036-1.185 2.09 2.406 1.507 5.604-.91 6.081-1.906 1.444-3.014-1.904-.455-2.859-.081-3.85 1.507m-53.744 3.021c-.346.559-2.146.77-4.001.469s-3.373-.198-3.373.229c0 1.253 4.841 3.096 6.48 2.467.864-.331 1.765.105 2.119 1.027.338.882 1.043 1.604 1.567 1.604s.63-.521.237-1.158c-.491-.793-.037-.98 1.441-.593 2.182.571 2.818-.724 1.391-2.837-1.059-1.567-5.122-2.405-5.861-1.208m60.859.024c-1.535.74-2.084 1.666-1.701 2.871.734 2.316-2.1 3.803-6.089 3.196-3.759-.572-5.327 1.094-5.681 6.041-.152 2.12-.788 3.661-1.512 3.662-.687.001-1.25.452-1.25 1.002s.675 1 1.5 1 1.5-.441 1.5-.98c0-1.383 7.776-5.192 8.432-4.13.81 1.311-3.18 5.926-7.459 8.627-3.72 2.348-7.545 8.011-6.04 8.942.424.262 2.508-.409 4.631-1.491 7.244-3.694 10.275-2.003 5.237 2.922-3.51 3.432-4.037 3.589-6.905 2.055-2.846-1.524-5.792-.229-6.532 2.872-.352 1.475-1.066 3.226-1.588 3.889-1.378 1.753-.039 3.294 2.862 3.294 2.281 0 2.458-.286 1.862-3-.736-3.349.835-3.961 4.768-1.857 1.603.858 2.232.858 2.518 0 .209-.628.877-1.143 1.483-1.143s2.085-.923 3.286-2.052l2.184-2.052 4.131 2.153c2.271 1.184 4.13 2.501 4.13 2.927s1.238 1.044 2.75 1.375 3.834.908 5.158 1.283c2.39.677 2.402.641 1.679-4.726-.401-2.974-.887-6.894-1.079-8.711-.193-1.816-.774-3.841-1.291-4.5-.518-.658-1.25-2.489-1.628-4.068s-1.341-3.523-2.138-4.321c-1.329-1.329-2.017-6.287-1.685-12.138.111-1.958-.106-2.132-1.359-1.093-1.13.938-1.773.957-2.649.081-.877-.877-.746-1.158.542-1.158.935 0 1.7-.45 1.7-1 0-1.232-.843-1.181-3.767.228m-73.022 4.171c.709.77 1.447 1.25 1.639 1.067.593-.564-.91-2.466-1.948-2.466-.54 0-.401.63.309 1.399m-70.722 1.618c-.338.548.107 1.275.991 1.614 2.153.826 2.629.155.972-1.371-.855-.788-1.571-.877-1.963-.243m80.577 2.404c-1.356 1.634-5.122 1.699-6.262.108-.384-.537-1.055-.587-1.5-.113-.442.472-.218 1.067.499 1.322s2.338 1.58 3.602 2.943l2.298 2.478 2.899-2.516c2.651-2.302 2.763-2.655 1.312-4.13-1.416-1.44-1.721-1.45-2.848-.092m10.184-.337c-1.238.469-2.25 1.316-2.25 1.884 0 1.637 3.999 1.198 4.655-.511.798-2.079.265-2.383-2.405-1.373m6-.422c-.687.278-1.25 1.173-1.25 1.991 0 2.121 4.394 1.297 4.813-.903.326-1.708-1.013-2.117-3.563-1.088M85 89c0 .55.477 1 1.059 1s.781-.45.441-1-.816-1-1.059-1-.441.45-.441 1m-4 2c0 .55.702 1 1.559 1s1.281-.45.941-1-1.041-1-1.559-1-.941.45-.941 1m-33.114 2.101L45.5 95.173l2.361 1.913c2.906 2.356 2.902 2.356 6.889-.075 3.374-2.057 4.154-3.795 2-4.459-4.901-1.51-6.615-1.403-8.864.549m146.93.649c-.276 2.401-.749 2.75-3.73 2.75-2.038 0-3.603.565-3.884 1.402-.336 1.002.124 1.246 1.616.856 1.147-.3 2.248-.059 2.447.536.228.685 1.244.463 2.77-.606 3.397-2.379 5.262-2.198 4.427.43-.489 1.541-.302 1.984.683 1.625.745-.271 1.202-1.112 1.016-1.868-.187-.756-.44-2.294-.563-3.417-.537-4.909-4.26-6.239-4.782-1.708m-21.274-.818c-.225.365-.088 1.184.305 1.82.916 1.483 5.153 1.197 5.153-.348 0-1.269-4.786-2.56-5.458-1.472m-19.973.957c-.535.865-15.067 10.616-36.775 24.677-5.888 3.814-10.726 7.272-10.75 7.684s.993.75 2.26.75c4.845 0 11.517 5.515 20.525 16.966l1.94 2.466 4.365-2.863c2.401-1.575 6.292-4.147 8.645-5.716 2.354-1.569 4.604-2.863 5-2.875 1.156-.036 5.825-3.933 4.721-3.94-.55-.004-1.653.406-2.452.911-1.391.88-3.298-.721-4.108-3.449-.164-.55-.892-1.595-1.619-2.321-.726-.727-1.321-1.772-1.321-2.322s.729-.271 1.619.619c.891.891 1.801 1.437 2.024 1.215.68-.681-.795-3.691-1.809-3.691-.524 0-.687-.429-.363-.953s2.196.714 4.16 2.75l3.57 3.703-2.209-3.308c-2.927-4.38-1.789-5.293 1.591-1.275 1.466 1.742 2.871 2.963 3.121 2.712.527-.527-2.677-5.792-4.152-6.825-.547-.382-.695-.995-.328-1.361s1.754.51 3.085 1.946c3.385 3.652 4.426 3.274 1.28-.466-3.704-4.402-3.2-5.908.709-2.119 4.299 4.167 5.485 4.089 2.253-.148-1.403-1.84-2.544-3.752-2.536-4.25s.35-.456.759.094 2.057 2.125 3.662 3.5l2.919 2.5-2.013-3c-3.565-5.311-3.725-6.052-.756-3.5 1.599 1.375 3.059 2.838 3.244 3.25s.974.75 1.753.75c.78 0 1.417.603 1.417 1.339 0 1.888 4.135 3.549 7.319 2.94 2.555-.488 3.894-3.279 1.574-3.279-.609 0-.844-.685-.523-1.523.322-.838-.304-2.411-1.393-3.5-1.087-1.087-1.977-2.459-1.977-3.048 0-.59.707-.365 1.571.5 2.263 2.263 2.673 1.96 1.93-1.424-.578-2.632-.315-3.129 2.171-4.103l2.828-1.108-2.312-.888c-1.272-.488-2.992-1.567-3.822-2.397S171.74 98 170.376 98s-4.138-1.125-6.161-2.5c-3.62-2.46-9.566-3.36-10.646-1.611m-85.074 2.12c-.348.563-1.005.794-1.459.513s-1.099.199-1.431 1.066c-.982 2.558-.73 2.724 1.711 1.124 1.84-1.205 2.509-1.258 3.25-.257.745 1.005 1.44.968 3.434-.18 2.366-1.363 2.379-1.414.232-.947-1.247.272-2.906-.144-3.686-.925-.907-.907-1.647-1.049-2.051-.394m112.774 2.067c-.128 1.701.104 1.859 1.287.877 1.791-1.486 1.868-2.953.157-2.953-.708 0-1.358.934-1.444 2.076M211 99c0 1.289.506 1.998 1.25 1.75.688-.229 1.25-1.017 1.25-1.75s-.562-1.521-1.25-1.75c-.744-.248-1.25.461-1.25 1.75m-150.541 2.067c-1.173 1.897.537 2.365 2.279.623 1.559-1.558 1.562-1.69.035-1.69-.91 0-1.952.48-2.314 1.067M49 102c0 .55.45 1 1 1s1-.45 1-1-.45-1-1-1-1 .45-1 1m7.639 1.694c-1.126 1.126-.685 2.306.861 2.306.825 0 1.5-.423 1.5-.941 0-1.261-1.562-2.164-2.361-1.365m137.372 1.794-2.264 2.41 2.639.663c1.571.394 3.242.163 4.127-.572 1.977-1.641 1.875-2.711-.375-3.915-1.463-.783-2.347-.48-4.127 1.414m-11.546 1.464c-2.812 1.139-4.989 3.938-3.873 4.978.5.465 1.928 1.154 3.176 1.531 1.9.574 2.493.149 3.66-2.628 1.938-4.61 1.205-5.571-2.963-3.881m-16.91 2.298c.929 3.03 2.402 4.75 4.067 4.75 2.18 0 1.608-2.439-1.13-4.82-3.175-2.761-3.8-2.746-2.937.07M187 109c0 .55.423 1 .941 1s1.219-.45 1.559-1-.084-1-.941-1-1.559.45-1.559 1m-125 3c0 .55.45 1 1 1s1-.45 1-1-.45-1-1-1-1 .45-1 1m-18.908 1.377c-1.054 1.279-1.121 1.994-.266 2.849 1.513 1.513 2.414.478 2.005-2.305-.306-2.084-.435-2.124-1.739-.544m144.757.608c-.908.999-1.951 2.762-2.318 3.916-.574 1.81-.257 2.099 2.304 2.099 2.432 0 3.168-.57 4.067-3.149.604-1.732 1.098-3.532 1.098-4 0-1.503-3.446-.744-5.151 1.134m-128.197 1.479c-.605 1.578 1.492 2.683 3.149 1.659.743-.459.491-1.084-.752-1.86-1.475-.921-1.982-.879-2.397.201M197 117.059c0 .582.45.781 1 .441s1-.816 1-1.059-.45-.441-1-.441-1 .477-1 1.059m-143.303 2.993c-.573 2.191 2.438 5.879 4.803 5.883.55.001.212-.596-.75-1.327s-1.757-1.954-1.765-2.718c-.009-.765-.396-1.991-.862-2.725-.636-1.003-.989-.784-1.426.887m3.303.889c0 .518.445 1.216.989 1.552.566.35.734-.051.393-.941-.665-1.732-1.382-2.049-1.382-.611M61.232 122c1.172 1.877 2.768 2.701 2.768 1.429 0-.747-2.688-3.429-3.437-3.429-.319 0-.018.9.669 2m137.705-.424c-1.084 1.307-1.063 1.732.127 2.485.79.5 1.983.915 2.651.924 1.439.018 3.493-3.444 2.583-4.354-1.158-1.157-4.037-.65-5.361.945m-22.531.576c-.391.633.117 1.757 1.129 2.497 1.535 1.122 2.173 1.125 3.848.013 1.104-.733 2.182-1.857 2.396-2.498.515-1.546-6.417-1.558-7.373-.012m-127.057.603c1.186 1.919-.43 4.057-5.931 7.846-2.98 2.052-5.418 4.08-5.418 4.506 0 2.103 2.173 1.532 6.129-1.609l4.371-3.471.327 2.737c.726 6.072 2.173 4.404 2.173-2.505 0-4.319-.456-7.423-1.155-7.854-.68-.421-.884-.277-.496.35m113.036 1.477c-1.587 1.227-3.027 2.552-3.2 2.944s-1.034.435-1.914.098q-1.594-.61-.876.556c.446.722.031 1.2-1.086 1.249-1.134.049-1.324.273-.508.6 1.09.437 8.55-3.788 10.199-5.776.275-.332 1.175-.86 2-1.174 1.265-.482 1.247-.583-.115-.65-.888-.043-2.913.925-4.5 2.153M140 126c1.1 1.1 2 2.675 2 3.5s.45 1.5 1 1.5 1 .505 1 1.122c0 .776-.464.738-1.5-.122-.825-.685-1.5-1.865-1.5-2.622 0-.758-.45-1.378-1-1.378-1.831 0-1.056 2.319 2.622 7.841.689 1.035 4.378-1.245 4.378-2.705 0-1.645-6.799-9.136-8.292-9.136-.389 0 .192.9 1.292 2m-75 0c0 .55.477 1 1.059 1s.781-.45.441-1-.816-1-1.059-1-.441.45-.441 1m83 1.378c0 .207.685.946 1.523 1.641 1.273 1.057 1.42.995.893-.378-.538-1.401-2.416-2.384-2.416-1.263m-17 3.459c0 .469.9 1.668 2 2.663 1.538 1.391 2 1.483 2 .396 0-.778-.9-1.977-2-2.664s-2-.865-2-.395M129.024 133c.702 1.375 1.556 2.725 1.899 3s1.409 1.736 2.37 3.246c1.527 2.399 1.998 2.59 3.727 1.509 2.239-1.398 2.6-3.38.73-4.009-.953-.321-.893-.855.25-2.244 1.414-1.719 1.371-1.743-.75-.422-1.238.771-2.25 1.831-2.25 2.357 0 .525-1.631-.595-3.625-2.491-3.128-2.973-3.451-3.103-2.351-.946M67.5 133c.34.55.816 1 1.059 1s.441-.45.441-1-.477-1-1.059-1-.781.45-.441 1m112.125.798c-.892 1.443 1.001 3.283 2.705 2.629 1.793-.688 2.328-3.427.67-3.427-.55 0-1 .45-1 1s-.477 1-1.059 1-.781-.45-.441-1 .393-1 .118-1-.722.359-.993.798m-137.467 4.539C38.346 142.27 38.243 143 41.5 143c1.824 0 2.5.535 2.5 1.977 0 1.923 4.544 5.812 5.58 4.776.285-.285-.423-2.194-1.574-4.243-1.303-2.318-1.92-4.815-1.637-6.613.651-4.129-.591-4.295-4.211-.56M166.5 137c.34.55 1.604.968 2.809.93 2.112-.068 2.119-.101.191-.93-2.752-1.183-3.731-1.183-3 0m11.516 4.481c-1.559 1.878-1.178 2.388 2.046 2.747 1.857.207 2.438-.201 2.438-1.714 0-2.486-2.752-3.12-4.484-1.033m-11.349.186c-1.874 1.873-.44 3.333 3.274 3.333 4.169 0 6.246-1.634 3.937-3.096-1.632-1.035-6.262-1.187-7.211-.237m-49.188 8.188c-3.053 2.537-5.612 6.945-4.448 7.664 1.703 1.053 7.837-1.528 8.485-3.57.337-1.061.012-2.785-.723-3.833-1.246-1.78-1.465-1.797-3.314-.261m-12.879.991c1.015 1.185 2.869 2.154 4.122 2.154 2.938 0 2.958-1.619.028-2.255-1.237-.268-3.092-.84-4.122-1.27-1.821-.761-1.822-.724-.028 1.371m36.17 3.603c-2.693 2.056-4.718 4.496-5.013 6.04-.637 3.335-.298 3.129 6.142-3.739 6.076-6.48 5.604-7.442-1.129-2.301m-109.02-.76c-2.396.626-2.213 2.311.25 2.311 1.111 0 2-.667 2-1.5 0-.825-.112-1.448-.25-1.384s-1.038.322-2 .573m116 3.391c-2.092 1.219-2.287 4.229-.377 5.815 1.847 1.533 4.116.523 5.461-2.431.93-2.04.803-2.588-.798-3.445-2.269-1.214-2.092-1.217-4.286.061m-98.018 1.17c-.239.688.624 2.522 1.917 4.077 2.52 3.03 3.086 7.538 1.184 9.44-1.186 1.186-1.186 1.185 3.667 2.702.926.289 1.514-.189 1.535-1.25.02-.946.603-2.741 1.297-3.99 1.153-2.076.851-2.696-3.539-7.25-5.248-5.445-5.426-5.554-6.061-3.729m74.518.412c-1.679.678-1.599 3.338.101 3.338 2.599 0 7.642-2.203 7.089-3.097-.587-.95-5.062-1.099-7.19-.241m-6.656 6.234c-2.771 3.062-2.007 4.39 2.156 3.748 2.063-.318 3.091-.299 2.285.044-1.982.842-4.963 4.62-4.384 5.557.828 1.339 3.764.8 7.267-1.336 2.39-1.457 3.039-2.317 2.159-2.861-.692-.428-1.78-1.804-2.417-3.059-1.667-3.278-5.079-4.289-7.066-2.093m22.989-1.03c-.431.697-.513 1.537-.183 1.867.895.895 1.871-.421 1.387-1.871-.338-1.016-.574-1.016-1.204.004m11.988 1.705c-2.225 2.226-1.958 3.294 1.014 4.04 1.773.445 3.107.117 4.25-1.042 1.554-1.579 1.536-1.787-.276-3.13-2.454-1.819-3.052-1.803-4.988.132m-21.064 3.418c-.35.566.051.734.941.393 1.732-.665 2.049-1.382.611-1.382-.518 0-1.216.445-1.552.989m5.987 2.02c-.342.555-.333 1.924.022 3.042.488 1.539 1.173 1.871 2.815 1.368 3.938-1.205 4.9-2.524 2.93-4.019-2.107-1.599-4.903-1.788-5.767-.391m10.416 1.599c-1.134 1.367-1.046 1.819.587 3.014 1.057.773 2.39 1.249 2.963 1.059 1.621-.54 1.889-3.845.388-4.796-1.894-1.201-2.421-1.104-3.938.723m-70.439 6.735c-.566.636-.87 1.944-.676 2.907s-.181 1.75-.832 1.75c-.652 0-.124.859 1.173 1.909l2.358 1.91-4.24 1.696c-6.854 2.743-2.664 4.918 4.597 2.387 3.351-1.168 4.33-3.899 1.399-3.906q-1.746-.005 1.5-1.985c1.787-1.09 3.25-2.355 3.25-2.812s-1.687-1.772-3.75-2.922c-2.799-1.561-4.011-1.798-4.779-.934M228 183.5c0 .825.375 1.5.833 1.5.459 0 .834-.675.834-1.5s-.375-1.5-.834-1.5-.833.675-.833 1.5m-6 5.5c0 .55.45 1 1 1s1-.45 1-1-.45-1-1-1-1 .45-1 1m-158.5 2.485c1.65.727 3.445 1.047 3.99.711.544-.336-.131-.922-1.5-1.304-4.179-1.163-5.669-.808-2.49.593m136.106 6.019c-7.462 5.634-7.1 5.196-5.684 6.903 1.586 1.91 1.696 7.143.188 8.96-.656.79-2.409 1.742-3.895 2.115-2.813.706-5.215 2.284-5.215 3.425 0 1.003 5.589 4.093 7.404 4.093.878 0 1.596-.75 1.596-1.667 0-.916.308-1.358.684-.982s2.202-.786 4.056-2.583 3.558-3.19 3.787-3.094c.762.319 6.473-2.103 6.473-2.745 0-.81 5.827-6.929 6.598-6.929.996 0 4.334-4.432 4.369-5.801.031-1.224-6.031-4.407-7.699-4.043-.422.092-2.035-.356-3.583-.995-1.548-.638-2.898-1.149-3-1.134-.102.014-2.837 2.029-6.079 4.477m-103.942.063c.331.863.018 2.658-.695 3.991-1.105 2.065-1.051 2.694.367 4.261.915 1.011 1.664 2.269 1.664 2.795 0 .527.787.989 1.75 1.027.963.039 2.426.365 3.252.726 2.119.926 4.771-3.262 2.84-4.486-.738-.468-.87-.857-.292-.866.577-.008 1.583.517 2.233 1.168s1.436.931 1.745.622c.54-.539-11.706-10.805-12.888-10.805-.318 0-.307.705.024 1.567m-2.643 21.908c-1.881 2.266 3.027 4.28 6.535 2.681 2.849-1.298 2.303-3.614-.668-2.837-1.037.271-2.138.085-2.446-.413-.813-1.315-2.025-1.114-3.421.569"/><path fill="#1976D2" fill-opacity=".337" fill-rule="evenodd" d="M151.081 15.849c-.595 1.111-1.081 2.689-1.081 3.507 0 1.805-7.941 8.799-9.145 8.055-.47-.291-.874.06-.897.78s-6.155 6.015-13.626 11.767c-7.472 5.752-13.132 10.609-12.579 10.793.778.259 39.572-28.005 43.61-31.772 1.848-1.724-.463-3.023-2.651-1.49-2.997 2.099-3.983 1.886-2.666-.575.614-1.147.891-2.31.616-2.585s-.986.409-1.581 1.52M56.455 35.351C54.272 37.753 53.885 39 55.324 39c.794 0 1.702-.993 2.02-2.206.693-2.65.497-2.968-.889-1.443M168 37.033c0 .686-.813.988-1.896.705-1.271-.333-2.298.256-3.118 1.788-1.317 2.461-.668 4.474 1.443 4.474.721 0 2.778 1.8 4.571 4s3.764 3.993 4.38 3.985c.822-.012.824-.211.005-.75-1.708-1.125-2.885-5.263-2.885-10.139 0-2.628-.504-4.577-1.25-4.833-.687-.237-1.25.11-1.25.77M193 44c0 .55-1.162 1-2.583 1-1.62 0-2.43.466-2.172 1.25.566 1.72 4.551 2.165 6.31.704C196.443 45.387 196.41 43 194.5 43c-.825 0-1.5.45-1.5 1m-15 3.317c0 .96-.658 1.998-1.462 2.307s-1.726 1.394-2.05 2.413c-.423 1.333-1.745 1.938-4.71 2.158-2.596.192-4.29.86-4.575 1.805-.366 1.211-.197 1.259.872.25 2.078-1.96 7.049-1.482 9.611.924 1.272 1.196 2.314 1.673 2.314 1.059 0-.613-.45-1.393-1-1.733s-1-1.041-1-1.559c0-1.62 1.464-1.03 2.817 1.137 1.002 1.605 1.029 2.403.118 3.5-.844 1.017-.86 1.422-.057 1.422.617 0 1.122.591 1.122 1.313s1.35 2.606 3 4.187c3.553 3.404 3.895 2.563.75-1.846-1.696-2.377-2.297-4.732-2.443-9.561-.128-4.255-.716-6.93-1.75-7.964-1.409-1.41-1.557-1.392-1.557.188M150 50c0 .55.527 1 1.171 1s1.997.747 3.006 1.661c1.01.913 2.121 1.374 2.471 1.025.778-.779-3.663-4.607-5.398-4.653-.687-.018-1.25.417-1.25.967m-43.771 3.187c.498 1.495 2.771 2.318 2.771 1.003 0-.537-.713-1.249-1.584-1.584-.973-.373-1.431-.15-1.187.581m-19.115 1.176c-.907 1.093-2.099 1.203-5.275.49-2.257-.508-4.344-.682-4.638-.388s-.009.535.632.535c.642 0 1.167.502 1.167 1.117 0 .624-.882.886-2 .593-1.328-.347-2-.03-2 .943 0 .816.49 1.162 1.107.781.761-.471.875.058.363 1.691-.948 3.024-1.26 4.583-.728 3.642.227-.403 2.058.384 4.068 1.75 4.414 2.999 5.357 3.061 7.67.505 1.661-1.835 1.677-2.215.213-5.236-1.44-2.973-1.437-3.411.026-5.027.881-.974 1.369-2.004 1.084-2.289s-1.045.117-1.689.893m74.047 2.087c.186 1.013-.223 2.039-.911 2.28-.687.24-1.25-.077-1.25-.706 0-.628-.43-.876-.956-.551-1.504.93-.028 3.527 2.004 3.527 1.009 0 2.115.454 2.458 1.009.96 1.554-.467 4.991-2.073 4.991-1.964 0-1.804 1.693.27 2.854 1.436.803 1.495 1.203.377 2.549-1.574 1.898-5.694 2.12-6.439.347-.376-.895-.839-.753-1.633.5-.609.963-1.746 1.75-2.525 1.75-1.042 0-1.202.585-.604 2.202 1.241 3.353 3.711 4.535 6.213 2.972 1.754-1.095 2.372-1.072 3.754.139.91.798 2.779 1.757 4.154 2.131l2.5.681-2.144-1.812c-1.178-.997-2.481-2.934-2.894-4.305-.672-2.23-.578-2.349.894-1.128 1.154.958 2.016 1.057 2.894.331.688-.569 2.6-1.186 4.25-1.373 3.759-.424 3.929-2.231.25-2.654-2.777-.32-3.707-1.698-1.616-2.395.742-.248.567-.945-.508-2.02-1.921-1.921-1.448-2.336 3.775-3.316l3.886-.729-3.894-2.357c-2.141-1.296-4.932-2.359-6.202-2.362s-2.062-.404-1.761-.892c.301-.487-.162-1.476-1.03-2.196-1.347-1.118-1.528-1.04-1.239.533m-63.917 2.498c-1.523 1.271-1.847 2.027-1 2.33 1.748.623 6.953-2.151 6.23-3.321-.894-1.446-2.723-1.1-5.23.991M58 60.117c0 .651-1.041.917-2.5.638-2.651-.506-2.989-.075-1.626 2.075.479.756 2.092 1.188 3.735 1 2.111-.241 2.977-.937 3.211-2.58.214-1.513-.195-2.25-1.25-2.25-.864 0-1.57.502-1.57 1.117m149.399.72c.865 1.399-2.384 5.163-4.456 5.163-2.61 0-2.4 1.909.584 5.3l2.463 2.8 2.505-2.504c2.885-2.886 3.327-7.631.934-10.025-1.681-1.68-2.883-2.115-2.03-.734M153 66c0 .55-.675 1-1.5 1-2.306 0-1.778 1.694.733 2.351 2.66.695 4.266-.607 3.431-2.784C155.001 64.84 153 64.414 153 66M75.485 78.652c-4.896 4.545-8.546 8.62-8.112 9.055.435.434 1.316.094 1.959-.757 1.415-1.872 14.068-10.944 15.295-10.965.48-.009 1.489-.406 2.241-.882 1.114-.706 1.011-1.224-.557-2.792-1.899-1.899-2.04-1.816-10.826 6.341M144 71c0 .55.675 1 1.5 1s1.5-.45 1.5-1-.675-1-1.5-1-1.5.45-1.5 1m-72.25 3.695c-3.767 2.587-4.476 3.738-2.901 4.712 1.19.735 9.284-5.383 8.596-6.496-.81-1.311-1.505-1.093-5.695 1.784m117.5-.344c-.974 2.138-.861 2.297 1.343 1.876 2.712-.519 3.036-1.46 1.064-3.097-1.039-.862-1.584-.586-2.407 1.221m23.135.114c2.006 3.062 2.054 4.535.146 4.535-.894 0-1.243.586-.893 1.5.324.843 1.812 1.5 3.396 1.5 1.737 0 2.943.593 3.143 1.546.254 1.217 1.275.845 4.786-1.743 2.553-1.881 3.837-3.372 3-3.483l-6.305-.831c-2.663-.352-4.574-.906-4.247-1.233.721-.721-2.336-4.256-3.681-4.256-.528 0-.233 1.109.655 2.465m-30.74 4.018c-.324.844-1.232 1.229-2.107.893-1.804-.692-1.864-.364-.563 3.059 1.216 3.198 4.352 3.364 6.468.342 1.953-2.787 1.968-3.777.057-3.777-.825 0-1.5-.45-1.5-1 0-1.537-1.715-1.185-2.355.483m-84.974 3.13c-1.836.995-2.626 2.063-2.25 3.042.319.83.579 1.697.579 1.927 0 1.354 3.988.06 5.819-1.889 1.678-1.787 1.898-2.576.974-3.5-1.479-1.479-1.643-1.465-5.122.42m97.28.946c-.658.793-2.041 1.441-3.073 1.441S189 84.643 189 85.429c0 2.832-2.583 4.072-8.321 3.992-5.95-.083-7.344.996-3.284 2.539 1.317.501 2.555 1.391 2.751 1.978.195.586 2.605 1.227 5.355 1.423 2.749.197 5.674.533 6.499.748 1.023.267 1.602-.503 1.822-2.418.356-3.104 2.685-4.584 4.445-2.824 1.897 1.897 2.233 1.329 2.233-3.783 0-3.819-.279-4.683-1.25-3.877q-1.248 1.035-1.25.022c0-1.727-2.789-2.188-4.049-.67M55.146 84.028c-1.295 1.079-2.827 1.669-3.405 1.312-.613-.379-.753-.169-.336.505.392.635.236 1.155-.346 1.155-2.511 0-.773 2.904 2.118 3.539 2.444.537 3.478.286 4.483-1.089.887-1.213.985-2.172.306-2.991-.55-.663-.72-1.938-.376-2.832.793-2.068.452-2.012-2.444.401M214 83.878c0 .617-.59 1.122-1.311 1.122-.722 0-2.307.927-3.523 2.06-1.431 1.333-2.909 1.839-4.189 1.433-1.507-.479-1.977-.165-1.977 1.317 0 1.07-.675 2.505-1.5 3.19-2.199 1.825-1.839 4.444 1.089 7.923 2.733 3.248 2.292 4.184-.697 1.479-2.139-1.936-4.597-.956-2.858 1.139 1.514 1.824.333 5.208-2.085 5.975-1.964.624-2.736 2.484-1.031 2.484.506 0 1.892 1.575 3.082 3.5 1.297 2.098 2.958 3.5 4.148 3.5 1.575 0 1.92.567 1.668 2.75-.252 2.198-.897 2.816-3.207 3.08-3.338.381-4.901-1.416-3.504-4.026.752-1.405.595-1.804-.71-1.804-.921 0-2.272-.787-3.003-1.75-1.15-1.515-1.333-1.536-1.36-.161-.07 3.482-9.032 4.854-9.032 1.383 0-1.63 3.268-4.944 7.444-7.549 2.407-1.502 2.644-1.952 1.301-2.467-1.614-.62-2.594-.047-7.094 4.141-1.24 1.153-3.468 2.892-4.952 3.865-3.524 2.309-3.419 3.538.301 3.538 2.315 0 3 .448 3 1.965 0 2.859-3.613 4.532-6.725 3.115-1.633-.745-2.269-1.654-1.874-2.682.495-1.29.041-1.437-2.652-.86-3.887.834-4.749 1.286-4.749 2.49 0 .5.749.622 1.664.271 1.103-.423 1.425-.252.956.507-.697 1.128-2.215 2.161-20.12 13.694-4.95 3.189-10.946 7.088-13.325 8.666l-4.326 2.868-2.342-2.767c-1.288-1.522-4.644-5.578-7.458-9.014-5.745-7.014-11.084-10.253-16.901-10.253-3.319 0-4.025-.375-4.535-2.407-.333-1.324-.864-3.085-1.182-3.913s.018-1.704.746-1.947c.727-.243.423-.306-.677-.142-1.381.207-2.892-.95-4.884-3.742-3.229-4.525-8.006-7.84-11.307-7.845-1.205-.002-2.479-.471-2.832-1.041-.693-1.122-14.477-1.02-14.477.107 0 .368 4.162 4.517 9.25 9.22 12.01 11.102 13.754 12.618 16.75 14.564 3.689 2.395 12.875 9.818 17.869 14.437 3.817 3.531 4.616 3.887 6.328 2.818 2.63-1.643 4.803.164 4.803 3.994 0 2.292.545 2.99 2.75 3.518 1.513.363 4.01 1.294 5.549 2.07 2.666 1.344 3.118 1.198 9.5-3.074 6.9-4.618 10.012-4.393 4.53.328-1.632 1.405-4.239 4.258-5.794 6.34-2.589 3.468-5.386 4.544-4.785 1.84.405-1.821-1.167-1.289-2.5.847-.723 1.156-1.856 1.733-2.741 1.393-1.877-.72-2.132 3.211-.259 3.984.836.345.322 1.365-1.556 3.083-2.02 1.849-3.91 2.568-6.75 2.568-4.025 0-4.804-.74-2.841-2.703.805-.805-.347-2.063-4.25-4.643-2.944-1.947-9.475-6.603-14.512-10.347C79.628 143.4 60.539 129.45 58.059 127.87c-1.408-.896-3.622-2.648-4.922-3.894l-2.363-2.265.723 2.395c.398 1.316 2.074 3.818 3.726 5.557 1.651 1.74 2.761 3.765 2.468 4.5-.347.87-.561.697-.612-.496-.043-1.009-.617-1.654-1.274-1.435-1.421.473-3.001 5.583-2.444 7.905.293 1.22-.276 1.605-2.234 1.512-1.445-.068-2.994-.58-3.443-1.137-1.325-1.645.392 3.779 2.005 6.332.814 1.289 1.651 3.688 1.858 5.33.226 1.786 2.001 4.658 4.416 7.146 2.22 2.288 4.037 4.502 4.037 4.92s.668.76 1.485.76c1.212 0 1.121.598-.496 3.25-2.12 3.477-2.629 8.237-.989 9.25.581.359 1-.629 1-2.358 0-1.636.54-3.155 1.2-3.375 1.056-.352 10.802 1.137 11.609 1.773.826.653-2.904 7.519-3.788 6.973-.562-.347-1.021-.154-1.021.428S68.325 182 67.5 182s-1.5-.45-1.5-1-.9-1-2-1c-3.303 0-2.69 5.373.904 7.932 3.352 2.387 4.295 2.487 8.627.92 3.09-1.117 3.125-1.196 1.321-3-2.586-2.586-2.309-5.348.783-7.779 3.362-2.645 3.975-2.608 8.021.478 3.819 2.913 4.179 4.754 1.395 7.137-1.072.918-1.703 2.067-1.402 2.553.301.487-.242 1.757-1.206 2.822C80.962 192.699 79.325 193 71.89 193h-8.799l-.693 3.693c-.381 2.031-1.574 5.186-2.651 7.011-2.761 4.679-1.75 7.677 3.264 9.684 6.135 2.455 10.45 2.113 12.916-1.023 1.14-1.449 2.073-3.249 2.073-4 0-.894 1.211-1.365 3.514-1.365 1.932 0 4.398-.552 5.479-1.228 1.615-1.008 2.506-.909 4.986.557 3.333 1.968 3.921 1.323 1.366-1.5-1.54-1.702-1.54-1.956 0-3.658 2.064-2.28 2.076-3.143.065-4.613-1.315-.962-1.358-1.353-.25-2.26 1.032-.844 3.1.303 8.989 4.984 7.135 5.672 8.956 8.718 5.213 8.718-.784 0-1.697.709-2.03 1.577-.871 2.271-5.242 3.743-6.937 2.336-1.072-.89-1.578-.562-2.378 1.543-1.338 3.518-1.454 3.289 2.051 4.059 1.687.37 3.335 1.371 3.662 2.224.787 2.05-2.599 4.495-5.48 3.958-1.769-.33-2.25.043-2.25 1.742 0 1.188.54 2.701 1.2 3.361 2.987 2.987 8.8-.083 8.8-4.648 0-1.783.426-2.083 2.289-1.616 3.146.79 7.711-1.111 7.711-3.211 0-1.342-.267-1.458-1.2-.525-1.648 1.648-7.296 1.512-8.726-.211-.761-.917-.82-1.628-.166-2.032.552-.342.775-1.221.493-1.954-.518-1.351 4.883-6.603 6.79-6.603 1.719 0 12.768 8.423 12.463 9.5-.156.55-1.258 1.44-2.45 1.979-4.12 1.862-3.78 6.087.578 7.181 1.998.502 3.062.06 4.841-2.009 1.255-1.458 2.679-2.651 3.166-2.651s3.459 1.843 6.605 4.096c5.336 3.821 14.652 7.904 18.034 7.904 2.898 0 6.106 2.15 8.369 5.606 2.034 3.108 2.72 3.474 6 3.202 3.597-.299 3.7-.417 3.582-4.139-.098-3.083-.96-4.685-4.412-8.203-3.637-3.706-4.095-4.607-3.006-5.919 1.631-1.965 2.932-1.954 5.139.043 2.514 2.276 9.263 3.603 12.351 2.429 3.105-1.181 3.179-2.248.412-5.99l-2.136-2.89 2.886-2.538c1.588-1.396 3.605-2.552 4.482-2.569 2.941-.059 5.197-3.652 4.547-7.242-.541-2.986-.214-3.567 3.542-6.29 10.808-7.835 11.995-8.475 13.863-7.475 2.746 1.47 8.654 1.197 9.277-.428.296-.771-.091-2.234-.861-3.25-1.984-2.619-1.795-3.347.87-3.347 2.935 0 3.943-.963 2.646-2.525-.694-.837-.537-1.597.509-2.465.831-.69 1.512-2.1 1.512-3.132 0-2.197 3.502-2.619 4.307-.52.287.748 2.374 1.655 4.638 2.017 3.124.5 4.342 1.249 5.047 3.105 1.029 2.705 7.936 7.52 10.788 7.52 5.224 0 5.494-5.478.459-9.3-3.107-2.358-4.295-2.697-7.526-2.151-4.28.723-7.713-1.371-7.713-4.704 0-2.27 1.818-2.361 4.842-.243 3.5 2.451 4.063.557.658-2.212a2195 2195 0 0 1-4.329-3.528c-1.072-.878-.814-1.625 1.34-3.873 2.287-2.387 2.502-3.097 1.504-4.961-1.005-1.878-.881-2.25.904-2.717 1.79-.468 1.984-1.063 1.447-4.426-.571-3.569-.434-3.885 1.683-3.885 1.367 0 3.386 1.294 4.959 3.178 1.775 2.127 2.893 2.792 3.377 2.009.407-.66-.332-2.225-1.696-3.589-1.602-1.602-2.132-2.87-1.569-3.758 1.305-2.059 1.119-2.515-2.37-5.785-4.38-4.105-2.38-3.863 3.679.445 9.188 6.532 10.25 3.811 1.887-4.833-4.477-4.626-6.332-5.867-8.975-6-3.874-.194-4.258-1.75-1.189-4.819 2.074-2.074 2.085-2.201.309-3.5-1.014-.741-2.882-1.348-4.152-1.348s-2.313-.562-2.317-1.25c-.007-1.078-2.073-2.445-6.652-4.4-.637-.272-1.42.326-1.738 1.328s-1.923 2.419-3.567 3.146c-2.559 1.133-3.309 1.097-5.234-.251-3.137-2.197-4.116-1.965-3.419.813.862 3.435-1.616 5.284-5.01 3.738-1.889-.861-2.376-1.627-1.841-2.897 1.428-3.394 1.694-6.227.586-6.227-.615 0-1.117.45-1.117 1 0 1.25-3.681 1.325-4.444.09-.979-1.584.584-4.09 2.551-4.09 1.041 0 1.893-.45 1.893-1s.45-1 1-1 1 .916 1 2.035c0 1.725.305 1.872 2 .965 1.1-.589 2-1.693 2-2.454 0-2.678 3.451-7.353 7.086-9.599 3.439-2.126 8.002-7.952 6.221-7.943-1.507.007-7.307 3.961-7.307 4.981 0 .558-.886 1.015-1.969 1.015-1.292 0-1.78.489-1.422 1.423.841 2.193-3.301 4.048-5.423 2.429-.927-.707-1.809-1.349-1.96-1.426-1.079-.552 1.378-3.426 2.929-3.426 4.843 0 8.881-9.065 5.345-12-1.036-.86-1.5-.898-1.5-.122m-2.386 3.687c-.768 2.001.044 3.435 1.945 3.435 1.833 0 1.869-2.4.058-3.903-1.071-.889-1.523-.783-2.003.468m-42.441 4.441c-2.205 1.838-2.461 1.851-4.899.254-2.528-1.656-2.552-1.648-1.424.46 2.314 4.324 9.15 4.109 9.15-.287 0-2.888.106-2.872-2.827-.427M58.503 93.25c.425 1.771-.209 2.73-2.981 4.509C53.585 99.002 52 100.438 52 100.95c0 2.045 1.772 1.808 4.562-.61 1.616-1.4 4.288-3.627 5.938-4.949 2.507-2.009 2.754-2.564 1.5-3.382-.825-.538-2.521-.985-3.769-.994-1.849-.012-2.169.401-1.728 2.235m91.861.244c-.342.892-1.262 1.375-2.045 1.075s-1.15-.105-.817.434c.333.54-1.497 2.222-4.069 3.739s-5.263 3.321-5.982 4.008c-.72.688-1.543 1.25-1.83 1.25-.573 0-24.814 16.073-25.621 16.989-.275.311-1.625 1.086-3 1.721s-1.825 1.173-1 1.196c1.225.033 8.295-4.357 24-14.905.825-.554 6-3.969 11.5-7.588 11.671-7.68 12.021-7.973 10.58-8.864-.602-.371-1.374.054-1.716.945m-11.631.63c.679.684 1.486.991 1.793.683.308-.308-.247-.867-1.233-1.243-1.425-.542-1.54-.428-.56.56m63.267.254c0 .757.67 1.933 1.488 2.612 1.21 1.004 1.611.915 2.146-.478.385-1.003.079-2.08-.738-2.598-1.995-1.263-2.896-1.118-2.896.464M45 98c0 .55.477 1 1.059 1s.781-.45.441-1-.816-1-1.059-1-.441.45-.441 1m130.686 1.625c.291.756 1.38 1.375 2.421 1.375s1.893-.619 1.893-1.375c0-.788-1.033-1.375-2.421-1.375-1.643 0-2.251.442-1.893 1.375m16.195 2.693c-1.393 1.843-1.849 1.954-3.25.79-1.069-.886-1.631-.966-1.631-.23 0 .617-1.012 1.158-2.25 1.201-1.387.049-1.675.268-.75.573.825.272 2.542 1.003 3.815 1.625 2.522 1.232 4.746.366 6.596-2.566 1.685-2.672-.61-3.935-2.53-1.393M206.5 102c.34.55.816 1 1.059 1s.441-.45.441-1-.477-1-1.059-1-.781.45-.441 1m2.5 2.5c0 .825.177 1.5.393 1.5s.652-.675.969-1.5.139-1.5-.393-1.5c-.533 0-.969.675-.969 1.5m-167.345.958c-.326.848-1.281 1.542-2.124 1.542-1.905 0-1.942 1.056-.121 3.546 1.392 1.903 1.436 1.903 3.544-.004 2.188-1.981 2.431-5.594.419-6.256-.62-.204-1.393.323-1.718 1.172m133.915.429c-.681 1.101 1.868 3.342 2.772 2.438.362-.362.658-1.258.658-1.992 0-1.489-2.578-1.825-3.43-.446m-103.011 2.581c1.067.808 2.365 1.483 2.882 1.5.518.018.068-.629-1-1.436-1.067-.808-2.365-1.483-2.882-1.5-.518-.018-.068.629 1 1.436M46 113.441c0 3.882-1.4 5.302-3.505 3.555-1.844-1.531-8.495.508-8.495 2.603 0 2.124 4.724 4.077 6.227 2.574 1.584-1.584 4.273-1.48 5.685.221 1.349 1.625.488 2.714-5.227 6.606-3.129 2.131-4.932 5-3.142 5C38.567 134 49 125.76 49 124.951c0-.444-.646-1.454-1.436-2.244s-1.058-1.834-.597-2.321c1.459-1.541 1.706-10.386.29-10.386-.766 0-1.257 1.344-1.257 3.441M105 116c0 .55.45 1 1 1s1-.45 1-1-.45-1-1-1-1 .45-1 1m117.813 3.683c.721.289 1.584.253 1.916-.079s-.258-.568-1.312-.525c-1.165.048-1.402.285-.604.604M218 126.339c0 1.392 4.039 3.661 6.516 3.661 2.45 0 .494-2.801-2.745-3.93-3.836-1.337-3.771-1.342-3.771.269m-48.8 3.861c-.66.66-1.2 1.785-1.2 2.5s-.675 1.3-1.5 1.3-1.5.413-1.5.918c0 2.302 1.381 4.082 3.166 4.082 1.144 0 1.676.447 1.284 1.081-.368.595-1.711.819-2.986.499-1.609-.404-4.175.525-8.391 3.036-3.34 1.99-6.129 4.015-6.198 4.501-.592 4.181-1.975 6.607-4.394 7.71-1.45.661-2.481 1.97-2.481 3.152 0 1.342-.66 2.021-1.965 2.021-2.938 0-4.555 3.623-2.523 5.654 1.476 1.477 1.652 1.434 2.164-.523.578-2.212 2.324-2.974 2.324-1.014 0 .651 1.041.917 2.5.638 1.549-.296 2.5-.019 2.5.729 0 1.634 3.301 4.516 5.174 4.516.834 0 2.362-.934 3.395-2.077 1.843-2.036 1.839-2.109-.2-3.75-3.678-2.96-3.735-5.168-.211-8.314 1.761-1.572 4.359-2.873 5.772-2.891 4.208-.052 6.299-2.236 5.117-5.344-.906-2.384-.776-2.624 1.421-2.624 1.33 0 3.056-.91 3.835-2.022 1.251-1.786 1.563-1.844 2.679-.5 1.649 1.987 5.913 1.958 6.682-.045 1.152-3.002-.885-3.807-8.066-3.184-1.627.14-3.092-.298-3.334-.999-.259-.751.444-1.25 1.76-1.25 1.515 0 2.016-.453 1.627-1.468-.31-.807-.184-1.702.279-1.989.463-.286 1.077.374 1.363 1.468.635 2.431 3.938 2.615 6.207.346 1.424-1.424 1.452-1.833.214-3.072-.786-.785-2.965-1.55-4.843-1.699s-4.387-.792-5.577-1.429c-2.663-1.425-2.626-1.425-4.094.043m-127.424 5.587c-2.049 1.492-3.736 3.238-3.75 3.88s-.588 1.393-1.276 1.671c-.687.277-.8.522-.25.543s3.181-1.968 5.847-4.421c5.407-4.976 5.119-5.818-.571-1.673m109.665-1.232c-1.864 1.494-1.852 1.512.309.465 1.238-.6 2.25-1.3 2.25-1.555 0-.765-.519-.544-2.559 1.09M54.5 138c.34.55.816 1 1.059 1s.441-.45.441-1-.477-1-1.059-1-.781.45-.441 1m89.059 1.532c-1.068.807-1.46 1.468-.873 1.468.588 0 1.629-.675 2.314-1.5 1.557-1.876 1.067-1.866-1.441.032M50 142.811c0 .971 3.816 5.189 4.694 5.189.339 0-.129-.823-1.039-1.829s-1.655-2.356-1.655-3S51.55 142 51 142s-1 .365-1 .811m-20.333 2.856c-1.417 1.416-.564 2.345 1.645 1.791 1.814-.455 2.567-.019 3.5 2.028 1.575 3.457 1.499 5.11-.366 7.957-1.034 1.577-1.201 2.59-.5 3.023.583.361 1.089-.155 1.133-1.157.05-1.145.271-1.329.603-.501.288.719-.26 2.173-1.217 3.231-2.301 2.542-.442 4.961 3.812 4.961 2.875 0 2.947.095 1.378 1.829-3.05 3.37-1.129 7.245 2.027 4.089.776-.776 1.645-.731 3.071.16 1.683 1.051 2.486.888 5.215-1.056 2.778-1.977 3.142-2.721 2.618-5.344-.336-1.676-1.371-3.888-2.302-4.916-.93-1.028-1.742-2.858-1.803-4.066-.348-6.833-.555-7.482-2.555-8.005-1.141-.298-2.319-1.476-2.617-2.617-.41-1.57-1.344-2.074-3.842-2.074-1.815 0-3.563.563-3.884 1.25-.466 1-.7 1-1.166 0-.62-1.328-3.635-1.699-4.75-.583M133.5 146c-.34.55-.141 1 .441 1s1.059-.45 1.059-1-.198-1-.441-1-.719.45-1.059 1m-112.92 5.318c-1.688 1.234-1.696 1.423-.119 3 2.101 2.101 9.4 2.425 7.67.34-.612-.738-.83-1.626-.484-1.972.347-.347-.586-1.093-2.073-1.658-3.31-1.258-2.84-1.285-4.994.29m82.42 1.091c0 .19.675.906 1.5 1.591.865.718 1.5.815 1.5.229 0-.558-.675-1.274-1.5-1.591s-1.5-.419-1.5-.229m12 6.172-4.5 1.321 5.421-.201c3.296-.122 5.583-.691 5.834-1.451.49-1.488-.761-1.427-6.755.331M36.5 162c-.34.55.057 1 .882 1s1.778-.45 2.118-1-.057-1-.882-1-1.778.45-2.118 1m116.043-.069c-.683 1.105.894 2.299 1.818 1.375.95-.951.773-2.306-.302-2.306-.518 0-1.2.419-1.516.931m-19.97 5.59c-2.186 1.654-1.693 2.846.784 1.896.904-.347 1.643-1.258 1.643-2.024 0-1.692-.023-1.69-2.427.128m6.007 2.041c-1.973 1.974-2.051 5.32-.141 6.053 1.636.628 6.742-1.588 7.247-3.144.183-.566-.985-1.807-2.596-2.759-2.67-1.577-3.069-1.59-4.51-.15m9.67 1.1c-1.996.806-1.468 5.151.771 6.349 1.111.595 2.461.809 3 .476 1.365-.844 1.225-4.841-.221-6.287-1.279-1.279-1.595-1.327-3.55-.538m-97.583 5.005c-.367.366-.667 1.962-.667 3.545 0 3.002 3.851 7.815 6.205 7.755.784-.02.486-.711-.754-1.75-2.494-2.09-3.949-5.346-2.067-4.623.923.354 1.157-.36.836-2.551-.418-2.843-2.017-3.912-3.553-2.376m144.75 18.791c-2.155 1.902-3.429 3.477-2.834 3.5.596.023 2.846-1.514 5-3.416s3.429-3.477 2.834-3.5c-.596-.023-2.846 1.514-5 3.416M87.74 218.67c1.782.926 3.544 1.379 3.917 1.007.974-.975.285-1.365-3.657-2.067l-3.5-.624zm128.01 5.019c-2.132.557-2.231 1.667-.294 3.275 1.759 1.459 3.12.767 3.83-1.948.527-2.018-.054-2.237-3.536-1.327"/><path fill="#1976D2" fill-opacity=".303" fill-rule="evenodd" d="M153 20c-1.375 1.076-2.05 1.956-1.5 1.956s2.125-.88 3.5-1.956 2.05-1.956 1.5-1.956-2.125.88-3.5 1.956m-5 4c-.825.533-1.05.969-.5.969s1.675-.436 2.5-.969 1.05-.969.5-.969-1.675.436-2.5.969m20.462 15.062c-.361.584-1.85 1.53-3.309 2.103-2.587 1.015-2.599 1.062-.51 1.866 1.179.454 2.754 1.696 3.5 2.76 1.227 1.749 1.371 1.469 1.508-2.928.155-4.993-.049-5.646-1.189-3.801m23.351 7.621c.721.289 1.584.253 1.916-.079s-.258-.568-1.312-.525c-1.165.048-1.402.285-.604.604m-13.515 4.221-2.201 1.838 2.24 2.105 2.24 2.104.158-3.975c.088-2.187.07-3.961-.038-3.943-.108.019-1.188.861-2.399 1.871M97.872 59.75c-1.269 1.619-1.222 1.64.628.283 1.1-.807 2.188-1.594 2.417-1.75s-.054-.283-.628-.283-1.662.788-2.417 1.75m66.207 2.833c.048 1.165.285 1.402.604.605.289-.722.253-1.585-.079-1.917s-.568.258-.525 1.312M57.5 63c-.34.55-.141 1 .441 1S59 63.55 59 63s-.198-1-.441-1-.719.45-1.059 1m112.5-.607c0 .216.698.661 1.552.989.89.341 1.291.173.941-.393-.587-.951-2.493-1.406-2.493-.596M163 67c0 .55.45 1 1 1s1-.45 1-1-.45-1-1-1-1 .45-1 1m46-.241c0 .418-.935 1.344-2.078 2.058-1.605 1.002-2.403 1.029-3.5.118-2.074-1.721-1.74-.253.438 1.925 1.721 1.721 2.009 1.739 3.855.25 2.266-1.828 3.713-5.11 2.254-5.11-.533 0-.969.342-.969.759m-134 7.3c0 .582.45.781 1 .441s1-.816 1-1.059S76.55 73 76 73s-1 .477-1 1.059M79.5 76c-.995 1.1-1.36 2-.81 2s1.815-.9 2.81-2 1.36-2 .81-2-1.815.9-2.81 2m74.233-.876c.679.684 1.486.991 1.793.683.308-.308-.247-.867-1.233-1.243-1.425-.542-1.54-.428-.56.56M212 80c0 .55.477 1 1.059 1s.781-.45.441-1-.816-1-1.059-1-.441.45-.441 1m3.5 0c-.34.55.084 1 .941 1s1.559.675 1.559 1.5c0 2.128.929 1.869 3.588-1l2.317-2.5h-3.894c-2.141 0-4.171.45-4.511 1m-32.317 1.217c-1.4 1.4-1.545 2.783-.29 2.783.916 0 2.425-3.016 1.814-3.626-.187-.188-.873.192-1.524.843m9.089 2.741c-1.776.848-3.238 2.281-3.25 3.185-.026 1.913-2.024 2.857-6.045 2.857-1.572 0-3.106.399-3.407.887-.935 1.512 1.694 2.832 7.636 3.833l5.705.961.639-2.908c.797-3.628 3.282-4.723 5.095-2.244 1.216 1.664 1.355 1.407 1.355-2.505 0-2.396-.301-4.056-.669-3.688s-1.38.086-2.25-.625c-1.302-1.066-2.15-1.022-4.809.247m22.807 2.625c.048 1.165.285 1.402.604.605.289-.722.253-1.585-.079-1.917s-.568.258-.525 1.312m-5.329 6.106c-2.396.626-2.213 2.311.25 2.311 1.111 0 2-.667 2-1.5 0-.825-.113-1.448-.25-1.384s-1.037.322-2 .573m10.432 1.811c-1.634 1.375-3.468 2.5-4.076 2.5S215 97.62 215 98.378s-.722 1.976-1.604 2.708-2.079 2.475-2.66 3.873l-1.055 2.541-.722-3c-.397-1.65-.776-2.437-.841-1.75-.157 1.665-2.118 1.614-2.118-.056 0-.718-1.125-2.83-2.5-4.694s-2.5-2.763-2.5-1.998c0 1.472 4.094 8.008 7.328 11.699l1.929 2.201 2.121-4.186c1.167-2.303 3.804-5.318 5.86-6.701 3.899-2.624 7.59-7.015 5.895-7.015-.539 0-2.317 1.125-3.951 2.5m-21.15 8.25c.068 1.599 2.768 4.25 4.328 4.25 2.382 0 2.01-1.528-.825-3.385-2.724-1.785-3.551-1.989-3.503-.865m-8.889 2.14c-.824.523-.967 1.101-.363 1.474.546.338 1.549-.056 2.229-.875 1.35-1.626.291-1.965-1.866-.599M176.5 107c.34.55.816 1 1.059 1s.441-.45.441-1-.477-1-1.059-1-.781.45-.441 1m-107.5.81c0 .524 1.463 2.082 3.25 3.463s5.244 4.314 7.681 6.518 5.03 3.777 5.762 3.497c.804-.309 1.149.028.873.851-.26.776 1.712 3.081 4.586 5.361 2.773 2.2 8.486 6.824 12.695 10.277s8.44 6.542 9.403 6.866c.963.325 1.75 1.213 1.75 1.974 0 1.704.476 1.725 3.044.133 2.297-1.424 3.578-.222 4.564 4.278.765 3.496 10.397 7.611 13.409 5.729 1.091-.681 1.983-1.477 1.983-1.768 0-.292 2.137-1.6 4.75-2.907 6.188-3.097 5.678-2.796 14.562-8.582 7.018-4.57 9.055-6.5 6.861-6.5-.454 0-4.502 2.475-8.995 5.5-4.494 3.025-8.622 5.5-9.174 5.5s-1.004.45-1.004 1-.643 1-1.429 1c-.785 0-2.023.568-2.75 1.263-2.027 1.938-6.628 4.737-7.786 4.737-.569 0-1.035-.606-1.035-1.347 0-1.214-11.726-12.564-18-17.422-3.233-2.504-8.828-5.032-11.999-5.423-1.924-.237-2.8-1.229-3.805-4.308-1.667-5.109-5.194-8.788-12.6-13.145-4.448-2.616-6.098-3.16-6.689-2.204-.611.988-1.204.89-2.675-.441-1.039-.94-2.384-1.71-2.989-1.71s-1.807-.707-2.672-1.571c-.864-.865-1.571-1.143-1.571-.619m-27.886 1.119c-.859.532-.962 1.047-.29 1.462.571.353 1.339.154 1.707-.441.918-1.486.188-2.012-1.417-1.021m156.65.502c-.953.697-1.461 1.538-1.129 1.87s1.278-.071 2.103-.896c1.942-1.942 1.269-2.615-.974-.974m-6.951.252c.721.289 1.584.253 1.916-.079s-.258-.568-1.312-.525c-1.165.048-1.402.285-.604.604m-7.589 5.835c-1.871 1.989-2.694 3.482-1.919 3.482.747 0 1.959-1.125 2.695-2.5s1.937-2.5 2.669-2.5 1.331-.45 1.331-1c0-1.788-1.437-1.03-4.776 2.518M202 118c0 .55.9 1 2 1s2-.45 2-1-.9-1-2-1-2 .45-2 1m11.787 2c.242 1.65 1.042 3 1.777 3 .736 0 3.562.477 6.282 1.06 4.039.867 5.029 1.503 5.407 3.481.254 1.331-.115 3.245-.82 4.252-1.846 2.635-9.34 7.634-10.182 6.792-.391-.392-.747-2.241-.791-4.11-.071-3.074-2.706-7.475-4.475-7.475-.388 0-.965 2.521-1.283 5.603-.594 5.754-3.038 9.866-5.338 8.983-.734-.281-1.053.061-.763.817.275.716-.761 2.101-2.301 3.079-1.54.977-4.15 2.955-5.8 4.395-2.893 2.525-2.884 2.492.25-.927 1.787-1.95 3.25-3.861 3.25-4.248 0-1.22-2.81-.759-3.341.548-.381.94-.765.878-1.547-.25-.916-1.321-1.238-1.301-2.707.167-1.556 1.556-1.807 1.536-3.773-.295-1.426-1.329-1.741-2.189-.975-2.667C191.02 139.484 208 124.517 208 123.393c0-1.965-1.267-1.73-3.268.607-2.789 3.257-7.732 2.304-7.732-1.49 0-2.878-3.521-3.959-6.379-1.957-2.03 1.421-2.02 1.447.534 1.447 1.43 0 3.134.644 3.787 1.43.954 1.149.739 1.67-1.09 2.649l-2.278 1.219 2.213.819c3.357 1.242 2.822 3.883-.787 3.883-1.65 0-3 .45-3 1 0 1.763-2.94 1.068-4.232-1-.687-1.1-1.816-2-2.509-2-1.874 0-1.524 1.354.713 2.75 2.325 1.452 1.788 3.573-1.28 5.056-1.778.858-1.861 1.071-.442 1.126 1.157.045 1.75.874 1.75 2.446 0 1.307.626 2.897 1.392 3.532 1.751 1.453 2.586 4.508 1.647 6.027-.518.838-1.056.747-1.95-.33-.68-.819-1.877-1.242-2.662-.941s-1.427.05-1.427-.559c0-1.031 1.396-1.536 3.324-1.201.454.079.54-.318.191-.881-.348-.564-1.866-1.025-3.374-1.025s-3.233-.492-3.834-1.093c-.791-.791-1.767-.652-3.53.503-1.34.879-2.738 1.295-3.107.927-.368-.369-.67.106-.67 1.055s.45 1.448 1 1.108 1-.097 1 .54c0 2.008-6.248 7.129-8.105 6.643-1.182-.309-1.573-.009-1.213.93.293.763.071 1.387-.492 1.387s-1.234-.562-1.492-1.25c-.325-.866-.955-.636-2.051.75-1.692 2.138-2.217 6.5-.783 6.5.476 0 4.638-2.92 9.25-6.489 4.613-3.568 8.785-6.493 9.272-6.5s.598 2.086.247 4.648c-.678 4.948-4.728 11.341-7.184 11.341-.797 0-1.449.45-1.449 1s-.852 1-1.893 1c-2.188 0-3.572 2.728-2.222 4.377.606.74.1 1.736-1.483 2.92-1.321.988-2.402 1.374-2.402.857s.675-1.199 1.5-1.516 1.5-1.039 1.5-1.607c0-1.988-2.694-1.003-5.323 1.947-1.459 1.638-4.458 4.172-6.665 5.633-4.139 2.739-5.629 5.325-1.926 3.343 4.231-2.264 2.908-.016-2.259 3.839-7.36 5.491-11.08 7.207-15.62 7.207-5.11 0-9.496-2.463-25.986-14.591C69.776 155.341 54 144.195 54 145.223c0 .616.745 1.942 1.655 2.948s1.162 1.829.559 1.829-1.373-.448-1.711-.995-1.534-1.486-2.658-2.088c-4.352-2.329-.255 1.924 9.155 9.504 5.225 4.209 10.293 8.311 11.261 9.116.969.805 2.169 1.463 2.667 1.463s1.055.338 1.239.75c.183.412 2.89 2.654 6.015 4.981 4.071 3.031 5.772 4.995 6 6.927.251 2.131 2.232 4.01 9.463 8.975 6.278 4.312 8.997 5.714 8.673 4.474-.26-.993-2.461-3.063-4.891-4.599-4.809-3.039-7.336-5.508-5.639-5.508.568 0 3.31 1.8 6.093 4 3.381 2.673 6.065 4 8.09 4 2.685 0 3.029.334 3.029 2.941 0 1.618-.45 3.219-1 3.559-1.679 1.037-1.143 1.984 2.25 3.98 7.009 4.122 15.25 10.809 15.25 12.373 0 .906-2.25 3.145-5 4.975-6.158 4.1-6.981 6.189-2.317 5.887 2.047-.133 4.016-1.078 5.143-2.469 1.004-1.24 3.803-3.614 6.219-5.277 4.986-3.43 9.076-3.27 10.029.392.664 2.555 7.833 8.115 11.619 9.011 3.123.739 7.807-1.08 7.807-3.033 0-1.527-1.153-1.744-2.55-.478-1.097.995-7.45-.498-7.45-1.751 0-.458 1.238-.668 2.75-.467 1.512.202 2.188.102 1.5-.222-2.357-1.108-1.262-2.582 1.5-2.02 3.322.677 7.25-2.201 7.25-5.311V211l-2 2c-2.111 2.111-5 2.688-5 1 0-.55.54-1 1.2-1 .933 0 .933-.267 0-1.2-1.663-1.663-1.501-2.575.55-3.111 1.667-.435 1.667-.463 0-.573-2.732-.181-2.053-2.116.742-2.116 1.371 0 3.658-1.012 5.082-2.25 2.13-1.851 3.53-2.191 7.896-1.915 3.098.196 5.586-.116 5.977-.75.424-.685-.4-1.085-2.233-1.085-3.034 0-7.096-3.337-5.365-4.407.539-.333 1.154-.084 1.367.554.266.799 1.218.615 3.059-.591 2.44-1.599 2.81-1.614 4.259-.165 1.431 1.431 1.941 1.437 5.224.065 4.993-2.085 5.142-2.456.988-2.456-3.222 0-3.659-.326-4.289-3.196-.595-2.708-.284-3.556 2.039-5.554l2.74-2.357 1.439 2.053c1.817 2.594 2.287 2.572 5.335-.254 1.37-1.269 5.396-4.421 8.949-7.006 5.483-3.989 6.942-4.608 9.663-4.097 4.15.778 7.378-.278 7.378-2.416 0-.93.9-2.254 2-2.941 2.359-1.473 2.624-4.055.5-4.87-2.167-.832-1.843-2.362.5-2.362 1.1 0 2-.477 2-1.059s-.36-.837-.8-.565-1.344-.376-2.008-1.441c-.963-1.541-.944-1.935.091-1.935 1.448 0 7.01-4.997 10.467-9.402 3.2-4.078 2.903-9.033-1-16.708-3.57-7.02-5.27-8.828-7.701-8.193-.884.232-3.77-.506-6.411-1.638-2.642-1.132-4.914-2.059-5.048-2.059s-.045 1.35.197 3m-29.435 2.593c-.388 1.049-1.175 2.219-1.747 2.601-1.205.803 2.97 4.806 5.013 4.806 1.873 0 4.068-4.271 2.469-4.804-.659-.22-2.061-1.325-3.114-2.455-1.861-1.998-1.935-2.002-2.621-.148m-8.854 4.401c.514 1.619.292 1.864-1.183 1.306-1.7-.644-1.709-.581-.136 1.006 2.155 2.175 3.51 2.144 4.716-.109.735-1.374.509-2.088-.952-3-2.671-1.669-3.175-1.504-2.445.797m-135.192 3.579-2.806 2.573 3.25-2.261c1.788-1.244 3.25-2.401 3.25-2.573 0-.789-1.106-.112-3.694 2.261m183.64 7.205c-1.955 1.497-4.875 3.96-6.49 5.472-1.614 1.512-3.278 2.75-3.696 2.75s-.76.477-.76 1.059.45.781 1 .441 1 .136 1 1.058c0 1.183.588 1.522 2 1.152 1.483-.388 2-.03 2 1.384 0 1.048.245 1.906.543 1.906s2.993-2.363 5.986-5.25c3.788-3.655 5.645-6.314 6.109-8.75.653-3.427.626-3.463-1.314-1.75-2.236 1.975-3.324 2.22-3.324.75 0-.55.675-1 1.5-1s1.5-.45 1.5-1c0-1.737-2.377-1.038-6.054 1.778m-48.917 1.183c-.809.512-1.136 1.265-.726 1.675s1.505-.016 2.435-.946c1.807-1.807.726-2.269-1.709-.729M200 143c0 .55.477 1 1.059 1s.781-.45.441-1-.816-1-1.059-1-.441.45-.441 1m-176.808 8.776c-3.053.5-2.255 2.639 1.135 3.04 1.855.22 2.673-.144 2.673-1.191 0-1.895-.89-2.328-3.808-1.849m122.598 2.398c-1.491 1.554-2.348 2.826-1.903 2.826 1.344 0 5.336-3.844 4.962-4.78-.192-.48-1.569.399-3.059 1.954M42 154.059c0 1.132.45 1.781 1 1.441s1-1.266 1-2.059S43.55 152 43 152s-1 .927-1 2.059m11.075.531c.726.875 4.044 3.505 7.372 5.846 8.13 5.715 8.652 5.985 7.935 4.116-.328-.854-.906-1.552-1.286-1.552-.379 0-1.568-.663-2.643-1.474-11.376-8.583-14.147-10.272-11.378-6.936m141.519 3.259c-.392.633-.235 1.151.347 1.151s1.059.648 1.059 1.441.45 1.719 1 2.059c1.46.903 1.222-1.814-.347-3.96-.934-1.277-1.566-1.489-2.059-.691M185 162.492c0 .829.188 1.508.418 1.508s1.13.273 2 .607c2.266.869 1.955-.893-.418-2.375-1.668-1.042-2-.999-2 .26m19.731 2.428c-.435 1.663-.305 2.054.437 1.312.582-.582.86-1.647.62-2.369-.25-.749-.703-.295-1.057 1.057m10.745.474c-2.182 1.595-1.337 4.606 1.293 4.606 1.86 0 4.231-1.773 4.231-3.165 0-1.777-3.733-2.751-5.524-1.441m-84.726.295c-.963.252-1.75.875-1.75 1.384 0 1.343 1.337 1.139 3.559-.541 1.945-1.471 1.461-1.697-1.809-.843m76.461 1.849c-1.082 1.226-.961 1.462.75 1.462 1.146 0 2.039-.657 2.039-1.5 0-1.879-1.112-1.863-2.789.038m-72.239 1.518c-1.36 1.045-3.112 1.91-3.893 1.922-.782.012-2.133.666-3.002 1.453-.87.787-2.881 2.104-4.468 2.928l-2.887 1.498 3.761 1.571c2.069.865 5.719 1.572 8.112 1.572 4.332 0 13.405-3.576 13.405-5.283 0-.486-.338-.719-.75-.518s-1.974.979-3.47 1.73c-4.657 2.336-7.76-2.083-4.215-6.001 2.245-2.481.336-3.123-2.593-.872m-94.663 1.671c-1.205 1.225-1.828 2.452-1.384 2.727.986.609 4.421-3.017 3.928-4.146-.194-.444-1.339.194-2.544 1.419m104.682-1.238c1.249 1.505 3.009 1.184 3.009-.548 0-.518-.955-.941-2.122-.941-1.767 0-1.916.25-.887 1.489m24.23.069c-1.224.857-2.643 1.299-3.154.984a1.085 1.085 0 0 0-1.492.337c-1.3 2.103 2.477 1.796 5.519-.449 3.572-2.635 2.777-3.429-.873-.872M75 173.5c0 2.548 1.038 2.934 4.371 1.624 1.722-.676 1.665-.871-.715-2.43-3.381-2.215-3.656-2.155-3.656.806m124.553-1.191c-1.071.655-3.096 2.208-4.5 3.451-1.404 1.244-3.214 2.007-4.023 1.698s-1.149-.244-.758.147.209 1.315-.403 2.053c-.826.996-.805 1.342.085 1.342 1.177 0 13.046-8.695 13.046-9.558 0-.739-1.396-.388-3.447.867m-22.53 2.163c-.978 1.179-.893 1.8.425 3.119 2.082 2.082 3.313 1.034 1.445-1.229-1.199-1.452-1.188-1.619.079-1.2.81.267 1.71 1.492 2 2.721.688 2.912 2.477 2.726 2.708-.281.125-1.626-.579-2.691-2.297-3.473-3.084-1.406-2.896-1.42-4.36.343m42.915 2.81c-.859.67-1.833 1.942-2.164 2.826s-1.878 1.868-3.438 2.187-5.311 2.893-8.336 5.722c-7.008 6.553-11.509 9.978-16.366 12.453-4.243 2.162-5.496 4.068-3.793 5.771.809.809 1.72.455 3.386-1.317 2.739-2.914 14.496-12.17 17.5-13.778 3.662-1.96 17.273-13.116 17.273-14.158 0-1.346-2.16-1.19-4.062.294m-94.125.401c.721.289 1.584.253 1.916-.079s-.258-.568-1.312-.525c-1.165.048-1.402.285-.604.604m45.187 1.71c0 .216.698.661 1.552.989.89.341 1.291.173.941-.393-.587-.951-2.493-1.406-2.493-.596M91.5 181c.34.55 1.068 1 1.618 1s.722-.45.382-1-1.068-1-1.618-1-.722.45-.382 1m62.007.989c-.35.566.051.734.941.393 1.732-.665 2.049-1.382.611-1.382-.518 0-1.216.445-1.552.989m4.993 2.181c-4.168 2.313-5.558 4.055-4.374 5.482 1.93 2.325 5.813 1.64 6.899-1.217 1.933-5.086 1.197-6.33-2.525-4.265m-90.833 2.497C66.411 187.922 67 189 68.941 189c2.515 0 3.507-1.614 1.471-2.395-1.952-.749-1.934-.75-2.745.062M167.5 193c-.34.55-.141 1 .441 1s1.059-.45 1.059-1-.198-1-.441-1-.719.45-1.059 1m-100.165.782c-1.191.184-2.436 1.038-2.765 1.897-.454 1.182-.109 1.434 1.417 1.035 1.108-.29 1.793-.167 1.52.274-.792 1.283 2.139 1.966 3.329.776.772-.772 1.518-.715 2.622.201 1.157.961 1.882.997 2.907.147 1.487-1.234 3.585-.432 9.149 3.496 6.899 4.871 7.556 4.157 1.486-1.616-6.243-5.938-6.718-6.19-12-6.364-3.025-.1-6.474-.03-7.665.154m53.165 8.987c4.021 3.698 11.143 9.231 11.883 9.231.328 0 3.095-2.264 6.15-5.03 4.839-4.383 5.195-4.942 2.761-4.346-1.537.376-3.132 1.177-3.544 1.78-.526.769-1.002.706-1.595-.212-.528-.818-1.777-1.074-3.334-.683-1.474.37-4.891-.219-8.371-1.442-7.464-2.623-7.549-2.608-3.95.702m29.335-1.096c-.916.242-1.925 1.12-2.244 1.949-.437 1.139-.09 1.354 1.415.876 1.142-.362 1.994-.177 1.994.435 0 .587.45 1.067 1 1.067 1.16 0 1.362-2.631.25-3.253-.412-.23-.187-.282.5-.114s1.25-.132 1.25-.664c0-.991-1.215-1.077-4.165-.296M154 204.5c0 .825.45 1.5 1 1.5s1-.675 1-1.5-.45-1.5-1-1.5-1 .675-1 1.5m26.75 4.162c.688.278 1.813.278 2.5 0 .688-.277.125-.504-1.25-.504s-1.937.227-1.25.504m-82.056 6.977c-.933.934.194 2.361 1.865 2.361.793 0 1.441-.675 1.441-1.5 0-1.506-2.111-2.056-3.306-.861M103 220.07c0 .809 5.874 2.389 6.512 1.751.203-.203-1.179-.853-3.071-1.446-1.893-.592-3.441-.729-3.441-.305M97 225c0 .55.423 1 .941 1s1.219-.45 1.559-1-.084-1-.941-1-1.559.45-1.559 1"/></svg>